<svg width="227" height="276" viewBox="0 0 227 276" fill="none" xmlns="http://www.w3.org/2000/svg">
<g clip-path="url(#clip0_2401_324)">
<path d="M141.13 218.501C96.4639 218.501 60.1262 182.565 60.1262 138.398C60.1262 94.2302 96.4639 58.2942 141.13 58.2942C185.795 58.2942 222.133 94.2302 222.133 138.398C222.133 182.565 185.795 218.501 141.13 218.501ZM141.13 79.6508C108.253 79.6508 81.5061 106.004 81.5061 138.398C81.5061 170.792 108.253 197.144 141.13 197.144C174.006 197.144 200.753 170.792 200.753 138.398C200.753 106.004 174.006 79.6508 141.13 79.6508Z" fill="#4B0082"/>
<path d="M48.4571 236.917L36.63 219.126C103.918 174.494 157.526 112.381 191.659 39.4956L211.028 48.5475C175.231 124.981 119.016 190.119 48.4571 236.917Z" fill="#4B0082"/>
<path d="M81.5061 59.9526H60.1262V275.122H81.5061V59.9526Z" fill="#4B0082"/>
<path d="M14.5544 258.718C6.53031 258.718 0 252.194 0 244.179C0 236.164 6.53031 229.641 14.5544 229.641C22.5784 229.641 29.1087 236.164 29.1087 244.179C29.1087 252.194 22.5784 258.718 14.5544 258.718ZM14.5544 237.361C10.7893 237.361 7.72588 240.421 7.72588 244.182C7.72588 247.943 10.7893 251.003 14.5544 251.003C18.3194 251.003 21.3828 247.943 21.3828 244.182C21.3828 240.421 18.3194 237.361 14.5544 237.361Z" fill="#4B0082"/>
<path d="M214.17 25.6315C221.256 25.6315 227 19.8937 227 12.8157C227 5.7378 221.256 0 214.17 0C207.085 0 201.341 5.7378 201.341 12.8157C201.341 19.8937 207.085 25.6315 214.17 25.6315Z" fill="#4B0082"/>
</g>
<defs>
<clipPath id="clip0_2401_324">
<rect width="227" height="275.122" fill="white"/>
</clipPath>
</defs>
</svg>
